<svg width="503" height="220" viewBox="0 0 503 220" fill="none" xmlns="http://www.w3.org/2000/svg">
<path d="M156.006 134.766V170.215H2.49023L0 142.383L87.3047 2.92969H123.486L84.2285 67.9688L44.5312 134.766H156.006ZM133.154 2.92969V216.211H87.4512V2.92969H133.154Z" fill="#8FA8A8"/>
<path d="M324.316 90.5273V128.467C324.316 144.092 322.559 157.617 319.043 169.043C315.625 180.469 310.645 189.893 304.102 197.314C297.656 204.736 289.941 210.254 280.957 213.867C272.07 217.383 262.207 219.141 251.367 219.141C242.676 219.141 234.57 218.018 227.051 215.771C219.531 213.525 212.744 210.059 206.689 205.371C200.732 200.586 195.605 194.629 191.309 187.5C187.012 180.371 183.691 171.875 181.348 162.012C179.102 152.148 177.979 140.967 177.979 128.467V90.5273C177.979 74.707 179.688 61.1328 183.105 49.8047C186.621 38.4766 191.65 29.1016 198.193 21.6797C204.736 14.2578 212.451 8.78906 221.338 5.27344C230.322 1.75781 240.234 0 251.074 0C259.766 0 267.822 1.12305 275.244 3.36914C282.764 5.61523 289.551 9.08203 295.605 13.7695C301.66 18.457 306.787 24.3652 310.986 31.4941C315.283 38.623 318.555 47.1191 320.801 56.9824C323.145 66.748 324.316 77.9297 324.316 90.5273ZM278.613 134.18V84.5215C278.613 77.1973 278.174 70.8496 277.295 65.4785C276.514 60.0098 275.342 55.3711 273.779 51.5625C272.314 47.7539 270.459 44.6777 268.213 42.334C265.967 39.9902 263.379 38.2812 260.449 37.207C257.617 36.0352 254.492 35.4492 251.074 35.4492C246.777 35.4492 242.92 36.3281 239.502 38.0859C236.084 39.8438 233.203 42.627 230.859 46.4355C228.516 50.1465 226.709 55.1758 225.439 61.5234C224.268 67.7734 223.682 75.4395 223.682 84.5215V134.18C223.682 141.504 224.072 147.9 224.854 153.369C225.732 158.838 226.904 163.525 228.369 167.432C229.932 171.24 231.836 174.365 234.082 176.807C236.328 179.15 238.916 180.859 241.846 181.934C244.775 183.008 247.949 183.545 251.367 183.545C255.664 183.545 259.473 182.715 262.793 181.055C266.113 179.297 268.945 176.514 271.289 172.705C273.73 168.799 275.537 163.672 276.709 157.324C277.979 150.977 278.613 143.262 278.613 134.18Z" fill="#8FA8A8"/>
<path d="M502.295 134.766V170.215H348.779L346.289 142.383L433.594 2.92969H469.775L430.518 67.9688L390.82 134.766H502.295ZM479.443 2.92969V216.211H433.74V2.92969H479.443Z" fill="#8FA8A8"/>
</svg>
