<svg width="285" height="60" viewBox="0 0 285 60" fill="none" xmlns="http://www.w3.org/2000/svg">
<circle cx="30" cy="30" r="30" fill="#EFF6F1"/>
<path d="M33.6585 22.5472C34.7231 22.5503 35.7431 22.9589 36.4958 23.6838C37.2486 24.4086 37.6729 25.3909 37.6761 26.416V34.1527C37.6729 35.1778 37.2486 36.16 36.4958 36.8849C35.7431 37.6098 34.7231 38.0183 33.6585 38.0214H25.6243C24.5598 38.0183 23.5397 37.6098 22.787 36.8849C22.0342 36.16 21.6099 35.1778 21.6068 34.1527V26.416C21.6099 25.3909 22.0342 24.4086 22.787 23.6838C23.5397 22.9589 24.5598 22.5503 25.6243 22.5472H33.6585ZM33.6585 21H25.6243C22.5309 21 20 23.4371 20 26.416V34.1527C20 37.1315 22.5309 39.5686 25.6243 39.5686H33.6585C36.752 39.5686 39.2828 37.1315 39.2828 34.1527V26.416C39.2828 23.4371 36.752 21 33.6585 21Z" fill="#274C5B"/>
<path d="M34.8633 26.4163C34.6249 26.4163 34.3919 26.3482 34.1937 26.2207C33.9956 26.0932 33.8411 25.9119 33.7499 25.6999C33.6587 25.4878 33.6348 25.2545 33.6813 25.0293C33.7278 24.8042 33.8426 24.5974 34.0111 24.4351C34.1797 24.2728 34.3944 24.1623 34.6282 24.1175C34.862 24.0727 35.1043 24.0957 35.3245 24.1836C35.5447 24.2714 35.7329 24.4201 35.8654 24.611C35.9978 24.8018 36.0685 25.0262 36.0685 25.2558C36.0688 25.4083 36.0379 25.5593 35.9774 25.7003C35.917 25.8412 35.8282 25.9693 35.7163 26.0771C35.6043 26.1849 35.4713 26.2704 35.3249 26.3286C35.1785 26.3868 35.0217 26.4166 34.8633 26.4163ZM29.641 27.1897C30.2767 27.1897 30.8981 27.3712 31.4266 27.7113C31.9551 28.0514 32.3671 28.5347 32.6103 29.1003C32.8536 29.6658 32.9172 30.2881 32.7932 30.8884C32.6692 31.4888 32.3631 32.0402 31.9136 32.4731C31.4641 32.9059 30.8915 33.2007 30.268 33.3201C29.6446 33.4395 28.9984 33.3782 28.4111 33.144C27.8238 32.9097 27.3219 32.513 26.9687 32.0041C26.6156 31.4951 26.4271 30.8967 26.4271 30.2846C26.428 29.4641 26.7669 28.6774 27.3694 28.0972C27.972 27.5169 28.7889 27.1906 29.641 27.1897ZM29.641 25.6425C28.6876 25.6425 27.7555 25.9147 26.9628 26.4248C26.17 26.9349 25.5521 27.6599 25.1873 28.5081C24.8224 29.3564 24.7269 30.2898 24.9129 31.1903C25.099 32.0908 25.5581 32.9179 26.2323 33.5671C26.9065 34.2163 27.7654 34.6585 28.7005 34.8376C29.6357 35.0167 30.605 34.9248 31.4858 34.5734C32.3667 34.2221 33.1196 33.6271 33.6493 32.8637C34.179 32.1003 34.4617 31.2028 34.4617 30.2846C34.4617 29.0534 33.9538 27.8727 33.0498 27.0021C32.1457 26.1315 30.9196 25.6425 29.641 25.6425Z" fill="#274C5B"/>
<circle cx="105" cy="30" r="30" fill="#EFF6F1"/>
<path fill-rule="evenodd" clip-rule="evenodd" d="M114.283 30.2843C114.283 25.1572 109.966 21 104.641 21C99.3171 21 95 25.1572 95 30.2843C95 34.9182 98.5251 38.7592 103.135 39.4563V32.9689H100.686V30.2843H103.135V28.2389C103.135 25.9124 104.575 24.6263 106.777 24.6263C107.832 24.6263 108.935 24.8078 108.935 24.8078V27.0928H107.719C106.522 27.0928 106.147 27.8082 106.147 28.5435V30.2843H108.821L108.394 32.9689H106.148V39.4572C110.758 38.7604 114.283 34.9194 114.283 30.2843Z" fill="#274C5B"/>
<circle cx="180" cy="30" r="30" fill="#EFF6F1"/>
<path d="M190.66 23.9584C189.885 24.2952 189.065 24.517 188.226 24.617C189.108 24.1006 189.771 23.2803 190.091 22.3099C189.257 22.7974 188.347 23.1394 187.398 23.3214C186.999 22.9028 186.519 22.5698 185.987 22.3427C185.455 22.1155 184.882 21.9989 184.303 22C181.961 22 180.065 23.868 180.065 26.1708C180.064 26.4911 180.1 26.8104 180.175 27.122C178.495 27.0433 176.85 26.6148 175.346 25.864C173.841 25.1132 172.51 24.0566 171.437 22.7619C171.061 23.3963 170.862 24.1203 170.861 24.858C170.861 26.3042 171.615 27.5826 172.755 28.3315C172.08 28.3155 171.418 28.1368 170.827 27.8107V27.8623C170.827 29.8853 172.291 31.5682 174.228 31.9513C173.863 32.0484 173.488 32.0976 173.111 32.0977C172.844 32.0981 172.577 32.0722 172.314 32.0202C172.853 33.6773 174.42 34.8825 176.276 34.9169C174.768 36.0794 172.916 36.7078 171.011 36.7032C170.673 36.7027 170.336 36.6825 170 36.6429C171.937 37.88 174.189 38.5344 176.488 38.5281C184.294 38.5281 188.559 32.1708 188.559 26.6572C188.559 26.4764 188.554 26.2956 188.546 26.1191C189.373 25.5303 190.089 24.7986 190.66 23.9584Z" fill="#274C5B"/>
<circle cx="255" cy="30" r="30" fill="#EFF6F1"/>
<path d="M254.797 20C249.387 20 245 24.3847 245 29.7923C245 33.801 247.414 37.2458 250.865 38.7627C250.839 38.0807 250.86 37.2589 251.035 36.5157C251.223 35.7201 252.295 31.178 252.295 31.178C252.295 31.178 251.98 30.5529 251.98 29.6305C251.98 28.1792 252.82 27.095 253.869 27.095C254.762 27.095 255.19 27.7639 255.19 28.5639C255.19 29.46 254.617 30.7977 254.324 32.0392C254.079 33.0797 254.845 33.9234 255.873 33.9234C257.727 33.9234 258.978 31.5409 258.978 28.7169C258.978 26.5704 257.53 24.9661 254.902 24.9661C251.932 24.9661 250.078 27.1825 250.078 29.6567C250.078 30.5092 250.331 31.1125 250.725 31.5759C250.904 31.7901 250.93 31.8775 250.865 32.1223C250.817 32.3015 250.712 32.7343 250.664 32.9092C250.598 33.1584 250.397 33.2458 250.174 33.154C248.805 32.5944 248.166 31.0994 248.166 29.4119C248.166 26.6316 250.515 23.2961 255.168 23.2961C258.908 23.2961 261.37 26.0021 261.37 28.9048C261.37 32.7474 259.231 35.6152 256.082 35.6152C255.024 35.6152 254.031 35.0425 253.69 34.3955C253.69 34.3955 253.122 36.6512 252.999 37.0884C252.794 37.8447 252.387 38.5966 252.015 39.1867C252.917 39.4526 253.852 39.5881 254.792 39.5889C260.202 39.5889 264.589 35.2042 264.589 29.7966C264.589 24.389 260.207 20 254.797 20Z" fill="#274C5B"/>
</svg>
